# xmcd
#
# Track frame offsets:
#	150
#	14189
#	28316
#	39593
#	51732
#	62340
#	83076
#	99821
#	111858
#	123762
#	143106
#	159314
#	179069
#	193884
#	209369
#	221545
#	233658
#	248422
#	270051
#	285896
#	300462
#	314730
#
# Disc length: 4361 seconds
#
# Revision: 0
# Processed by: cddbd v1.5.2PL0 Copyright (c) Steve Scherf et al.
# Submitted via: EasyCDDAExtractor 15.2.0.1
#
DISCID=32110716
DTITLE=Manassés Moura - Seu Estilo
DYEAR=1900
DGENRE=
TTITLE0=A carta
TTITLE1=Fio de cabelo
TTITLE2=A namorada que sonhei
TTITLE3=Serenata
TTITLE4=Deixa eu te amar
TTITLE5=Os amantes
TTITLE6=A dona do meu mundo
TTITLE7=Eu só quero é lhe ver
TTITLE8=A noite do meu bem
TTITLE9=Tudo para
TTITLE10=É o amor
TTITLE11=Rock-And-Lullab
TTITLE12=Feelings
TTITLE13=Sorte tem quem acredita nela
TTITLE14=Não consigo viver sem você
TTITLE15=Nem as paredes confesso
TTITLE16=Mulheres
TTITLE17=O que é o que é
TTITLE18=Lembranças de um beijo
TTITLE19=Você endoideceu meu coração
TTITLE20=Delírios de amor
TTITLE21=Xote das meninas
EXTD=
EXTT0=
EXTT1=
EXTT2=
EXTT3=
EXTT4=
EXTT5=
EXTT6=
EXTT7=
EXTT8=
EXTT9=
EXTT10=
EXTT11=
EXTT12=
EXTT13=
EXTT14=
EXTT15=
EXTT16=
EXTT17=
EXTT18=
EXTT19=
EXTT20=
EXTT21=
PLAYORDER=
